nColumns=28
nRows=7
DataType=double
version=3
OpenSimVersion=4.1
endheader
time	1_ground_force_vx	1_ground_force_vy	1_ground_force_vz	1_ground_force_px	1_ground_force_py	1_ground_force_pz	1_ground_torque_x	1_ground_torque_y	1_ground_torque_z	2_ground_force_vx	2_ground_force_vy	2_ground_force_vz	2_ground_force_px	2_ground_force_py	2_ground_force_pz	2_ground_torque_x	2_ground_torque_y	2_ground_torque_z	3_ground_force_vx	3_ground_force_vy	3_ground_force_vz	3_ground_force_px	3_ground_force_py	3_ground_force_pz	3_ground_torque_x	3_ground_torque_y	3_ground_torque_z
0	17.45186092747849	48.39492227583593	0.7161757995612894	0.2507628768312103	-0.005999999999991076	0.1012917902064354	0.2289334201481736	0.6973707347938735	0.06394312934584914	94.60168073506519	839.2264379010288	-51.72959578564243	-0.1480904852824521	-0.005999999999991065	0.2588041651065903	-0.2465095510548378	-2.181831121170407	0.1342672221207897	-4.895450523727835e-17	-2.458498367487075e-17	-1.91199982058069e-17	0.8999999999988528	-0.00599999999999107	0.1999999923701112	1.671598830492913e-18	-1.590149138603092e-18	-8.977145975156206e-19
0.0008333333333333334	18.20526446623429	52.55907683018884	0.5817898868436793	0.2499303649668231	-0.005999999999991069	0.1034295389716458	0.217224659074127	0.6718110735943067	0.05599448465900034	95.21886156917103	839.1883510420142	-51.18408239610766	-0.1479858937108221	-0.005999999999991058	0.2588078662603786	-0.2406938347238738	-2.12087323327051	0.1295617037714352	-5.448248078408097e-17	-2.158748098404051e-17	-1.924011896707974e-17	0.8999999999988201	-0.005999999999991062	0.1999999923701112	1.843820468868223e-18	-1.844517408721503e-18	-1.016254536236707e-18
0.001666666666666667	18.936375667568	56.7704666526846	0.4070519233364015	0.2491224498495824	-0.005999999999991061	0.1055797195695221	0.2058085708757827	0.6477053778393987	0.04796399343865766	95.84376201206094	839.1340520497668	-50.63743744625992	-0.147880083351919	-0.005999999999991052	0.2588113366077384	-0.234854193311675	-2.059661952208929	0.1248471547538923	-5.928750032767882e-17	-1.764283179089923e-17	-1.887161469660843e-17	0.8999999999987804	-0.005999999999991055	0.1999999923701118	1.98968321062815e-18	-2.08297021208547e-18	-1.123274001740821e-18
0.0025	19.63481235033442	61.01834192343209	0.1897868158978405	0.2483544037796486	-0.005999999999991056	0.1077188460803493	0.1947765818624126	0.6253440055297568	0.03990464338851778	96.47451875551685	839.0563842020372	-50.091885225784	-0.1477716924450463	-0.005999999999991046	0.2588142481575547	-0.2290184460925664	-1.998483284181034	0.1201478051015652	-6.315164319984739e-17	-1.273372872695964e-17	-1.796190874178486e-17	0.899999999998735	-0.00599999999999105	0.1999999923701132	2.102009822525682e-18	-2.297235275733034e-18	-1.214502844161338e-18
0.003333333333333334	20.29023359481642	65.29249836251959	-0.07161193402195583	0.2476406913215165	-0.005999999999991052	0.1098240872486958	0.1842125388657166	0.6049943911596549	0.03186970475486774	97.10931512757338	838.948114734203	-49.54950391953756	-0.1476593611699881	-0.005999999999991043	0.2588162792166074	-0.2232135270080092	-1.937613458943622	0.115486939603902	-6.585387845370781e-17	-6.86592052239987e-18	-1.646590336623272e-17	0.8999999999986841	-0.005999999999991046	0.1999999923701155	2.173587376903821e-18	-2.478620328780552e-18	-1.285540670167105e-18
0.004166666666666667	20.89252298793127	69.58330197310011	-0.3781042357666271	0.2469945807320242	-0.00599999999999105	0.1118737533926221	0.1741909901217076	0.5868965134839367	0.02391184068714259	97.74638900464514	838.8020878758998	-49.01219654309709	-0.1475417764444435	-0.005999999999991041	0.2588171217373029	-0.2174651320066526	-1.877315437980732	0.1108865686917528	-6.717545783591642e-17	-7.099772078835964e-20	-1.434811338433443e-17	0.8999999999986281	-0.005999999999991045	0.1999999923701188	2.197351621506044e-18	-2.618187275586331e-18	-1.331955507789957e-18
0.005	21.43197295251683	73.88170171208125	-0.7299359766647734	0.2464278054438824	-0.00599999999999105	0.1138477181028711	0.1647757172094946	0.5712593651784467	0.01608223022014009	98.3840399193917	838.6113644238006	-48.48166617497949	-0.1474177116016085	-0.005999999999991041	0.2588164883344446	-0.2117974205038927	-1.817835960990651	0.1063671484535048	-6.690593578760822e-17	7.591143664434151e-18	-1.158481975739883e-17	0.8999999999985686	-0.005999999999991045	0.1999999923701231	2.166590935482644e-18	-2.706954988982976e-18	-1.349395863674527e-18
